<svg width="16" height="21" viewBox="0 0 16 21" fill="none" xmlns="http://www.w3.org/2000/svg">
<g id="Vector">
<path fill-rule="evenodd" clip-rule="evenodd" d="M8.25 0C5.62665 0 3.5 2.12665 3.5 4.75C3.5 7.37335 5.62665 9.5 8.25 9.5C10.8734 9.5 13 7.37335 13 4.75C13 2.12665 10.8734 0 8.25 0ZM5 4.75C5 2.95507 6.45507 1.5 8.25 1.5C10.0449 1.5 11.5 2.95507 11.5 4.75C11.5 6.54493 10.0449 8 8.25 8C6.45507 8 5 6.54493 5 4.75Z" fill="#1D4ED8"/>
<path fill-rule="evenodd" clip-rule="evenodd" d="M8.25 11C6.21067 11 4.32752 11.4708 2.92815 12.2704C1.55 13.0579 0.5 14.2601 0.5 15.75C0.5 17.2399 1.55 18.4421 2.92815 19.2296C4.32752 20.0292 6.21067 20.5 8.25 20.5C10.2893 20.5 12.1725 20.0292 13.5719 19.2296C14.95 18.4421 16 17.2399 16 15.75C16 14.2601 14.95 13.0579 13.5719 12.2704C12.1725 11.4708 10.2893 11 8.25 11ZM2 15.75C2 15.0307 2.51701 14.233 3.67236 13.5728C4.80649 12.9247 6.42334 12.5 8.25 12.5C10.0767 12.5 11.6935 12.9247 12.8276 13.5728C13.983 14.233 14.5 15.0307 14.5 15.75C14.5 16.4693 13.983 17.267 12.8276 17.9272C11.6935 18.5753 10.0767 19 8.25 19C6.42334 19 4.80649 18.5753 3.67236 17.9272C2.51701 17.267 2 16.4693 2 15.75Z" fill="#1D4ED8"/>
</g>
</svg>
