<svg width="25" height="29" viewBox="0 0 25 29" fill="none" xmlns="http://www.w3.org/2000/svg">
<path d="M23.915 22.442C23.4841 23.4375 22.974 24.3538 22.3831 25.1962C21.5776 26.3447 20.918 27.1397 20.4098 27.5811C19.6218 28.3057 18.7776 28.6768 17.8736 28.6979C17.2247 28.6979 16.442 28.5133 15.531 28.1386C14.6169 27.7658 13.777 27.5811 13.0089 27.5811C12.2034 27.5811 11.3395 27.7658 10.4154 28.1386C9.48999 28.5133 8.74445 28.7085 8.17444 28.7278C7.30755 28.7648 6.44347 28.3831 5.58098 27.5811C5.03049 27.101 4.34193 26.2779 3.51707 25.1118C2.63207 23.8666 1.90447 22.4227 1.33446 20.7765C0.723992 18.9984 0.417969 17.2765 0.417969 15.6096C0.417969 13.7001 0.830573 12.0532 1.65701 10.6731C2.30652 9.56455 3.1706 8.69009 4.25206 8.04815C5.33352 7.4062 6.50204 7.07907 7.76043 7.05814C8.44898 7.05814 9.35193 7.27113 10.474 7.68971C11.5929 8.1097 12.3114 8.32269 12.6264 8.32269C12.8619 8.32269 13.66 8.07365 15.013 7.57715C16.2925 7.11671 17.3724 6.92606 18.257 7.00116C20.6542 7.19462 22.4552 8.1396 23.6529 9.84208C21.509 11.1411 20.4485 12.9605 20.4696 15.2946C20.4889 17.1126 21.1484 18.6255 22.4446 19.8267C23.0321 20.3843 23.6881 20.8152 24.418 21.1212C24.2597 21.5802 24.0926 22.0199 23.915 22.442ZM18.4171 0.807506C18.4171 2.23247 17.8965 3.56296 16.8588 4.79444C15.6066 6.25843 14.092 7.1044 12.4495 6.97091C12.4285 6.79995 12.4164 6.62003 12.4164 6.43097C12.4164 5.063 13.0119 3.59901 14.0694 2.402C14.5974 1.79593 15.2689 1.29199 16.0832 0.889991C16.8958 0.493988 17.6643 0.27499 18.3872 0.237488C18.4083 0.427983 18.4171 0.618491 18.4171 0.807487V0.807506Z" fill="#1D4ED8"/>
</svg>
