<svg width="23" height="19" viewBox="0 0 23 19" fill="none" xmlns="http://www.w3.org/2000/svg">
<path d="M5.41797 5.48389L7.57686 7.28297C9.4135 8.8135 10.3318 9.57876 11.418 9.57876C12.5041 9.57876 13.4224 8.8135 15.2591 7.28297L17.418 5.48389M9.41797 17.4839H13.418C17.1892 17.4839 19.0748 17.4839 20.2464 16.3123C21.418 15.1407 21.418 13.2551 21.418 9.48389C21.418 5.71265 21.418 3.82703 20.2464 2.65546C19.0748 1.48389 17.1892 1.48389 13.418 1.48389H9.41797C5.64673 1.48389 3.76111 1.48389 2.58954 2.65546C1.41797 3.82703 1.41797 5.71265 1.41797 9.48389C1.41797 13.2551 1.41797 15.1407 2.58954 16.3123C3.76111 17.4839 5.64673 17.4839 9.41797 17.4839Z" stroke="#1D4ED8" stroke-width="1.5" stroke-linecap="round"/>
</svg>
