<svg width="25" height="25" viewBox="0 0 25 25" fill="none" xmlns="http://www.w3.org/2000/svg">
<path d="M12.6628 10.2575V14.9997H19.2528C18.9635 16.5247 18.0951 17.8161 16.7927 18.6843L20.7667 21.7679C23.0821 19.6306 24.418 16.4914 24.418 12.7623C24.418 11.894 24.3401 11.059 24.1953 10.2576L12.6628 10.2575Z" fill="#1D4ED8"/>
<path d="M5.80035 14.8145L4.90405 15.5007L1.73142 17.9719C3.74628 21.9682 7.87589 24.7289 12.6625 24.7289C15.9686 24.7289 18.7407 23.638 20.7667 21.7679L16.7927 18.6843C15.7017 19.419 14.31 19.8644 12.6625 19.8644C9.47885 19.8644 6.77389 17.7159 5.80535 14.8216L5.80035 14.8145Z" fill="#1D4ED8"/>
<path d="M1.73143 6.99589C0.896588 8.64333 0.417969 10.5024 0.417969 12.4838C0.417969 14.4652 0.896579 16.3244 1.73142 17.9719C1.73142 17.9829 5.80575 14.8103 5.80575 14.8103C5.56086 14.0756 5.4161 13.2964 5.4161 12.4837C5.4161 11.671 5.56086 10.8918 5.80575 10.1571L1.73143 6.99589Z" fill="#1D4ED8"/>
<path d="M12.6628 5.1146C14.4662 5.1146 16.0691 5.73797 17.3493 6.94023L20.8558 3.43374C18.7296 1.45231 15.969 0.238861 12.6628 0.238861C7.87614 0.238861 3.74629 2.98841 1.73143 6.99589L5.80575 10.1571C6.77417 7.26277 9.4791 5.1146 12.6628 5.1146Z" fill="#1D4ED8"/>
</svg>
