<svg width="22" height="22" viewBox="0 0 22 22" fill="none" xmlns="http://www.w3.org/2000/svg">
<path d="M7.79111 16.2417C7.37689 16.2417 7.04111 16.5775 7.04111 16.9917C7.04111 17.4059 7.37689 17.7417 7.79111 17.7417H13.7911C14.2053 17.7417 14.5411 17.4059 14.5411 16.9917C14.5411 16.5775 14.2053 16.2417 13.7911 16.2417H7.79111Z" fill="#131313"/>
<path fill-rule="evenodd" clip-rule="evenodd" d="M10.791 0.241943C10.066 0.241943 9.40442 0.441056 8.6803 0.779047C7.97933 1.10623 7.16874 1.5891 6.15285 2.19427L4.69723 3.06137C3.57812 3.72801 2.68637 4.25921 2.01117 4.76719C1.31415 5.29157 0.791004 5.83155 0.450087 6.54266C0.109001 7.25413 0.0165561 7.99874 0.0462093 8.86778C0.0749119 9.70897 0.222067 10.7316 0.406579 12.0138L0.698934 14.0456C0.936323 15.6955 1.1247 17.0048 1.40613 18.0241C1.69625 19.0749 2.10787 19.9089 2.85067 20.5485C3.59285 21.1875 4.48086 21.4734 5.56736 21.6096C6.62256 21.742 7.95382 21.742 9.63332 21.7419H11.9487C13.6282 21.742 14.9595 21.742 16.0147 21.6096C17.1012 21.4734 17.9892 21.1875 18.7314 20.5485C19.4742 19.9089 19.8858 19.0749 20.1759 18.0241C20.4573 17.0048 20.6457 15.6955 20.8831 14.0456L21.1755 12.0138C21.36 10.7316 21.5071 9.70896 21.5358 8.86779C21.5655 7.99874 21.473 7.25413 21.132 6.54266C20.791 5.83155 20.2679 5.29157 19.5709 4.76719C18.8957 4.25921 18.0039 3.72801 16.8848 3.06137L15.4292 2.19427C14.4133 1.5891 13.6027 1.10623 12.9017 0.779046C12.1776 0.441056 11.5161 0.241943 10.791 0.241943ZM6.8866 3.50315C7.9441 2.8732 8.69025 2.42975 9.31472 2.13828C9.92382 1.85398 10.3618 1.74194 10.791 1.74194C11.2203 1.74194 11.6582 1.85398 12.2673 2.13827C12.8918 2.42975 13.6379 2.8732 14.6954 3.50315L16.0803 4.32809C17.2446 5.02167 18.0662 5.51228 18.6691 5.96584C19.2575 6.40856 19.5798 6.77489 19.7794 7.19111C19.9787 7.60699 20.0617 8.08531 20.0367 8.81663C20.0111 9.56648 19.8766 10.5083 19.6846 11.843L19.4058 13.7804C19.1593 15.4935 18.9831 16.7082 18.73 17.6249C18.4826 18.5208 18.1849 19.0396 17.7526 19.4118C17.3197 19.7845 16.7586 20.0046 15.828 20.1213C14.877 20.2406 13.6398 20.2419 11.8971 20.2419H9.68494C7.94226 20.2419 6.70507 20.2406 5.75401 20.1213C4.82347 20.0046 4.2623 19.7845 3.82943 19.4118C3.39716 19.0396 3.09939 18.5208 2.85203 17.6249C2.59892 16.7082 2.42272 15.4935 2.17621 13.7803L1.89744 11.843C1.70539 10.5082 1.57092 9.56647 1.54534 8.81663C1.52038 8.08531 1.60331 7.60699 1.80268 7.19111C2.00223 6.77489 2.32449 6.40856 2.91295 5.96584C3.51583 5.51228 4.33745 5.02167 5.50176 4.32809L6.8866 3.50315Z" fill="#131313"/>
</svg>
