<svg width="20" height="20" viewBox="0 0 20 20" fill="none" xmlns="http://www.w3.org/2000/svg">
<path id="Vector" fill-rule="evenodd" clip-rule="evenodd" d="M0.335366 5.86689C-0.205094 6.99423 -0.0153722 8.31276 0.364072 10.9498L0.642838 12.8872C1.13025 16.2746 1.37396 17.9683 2.54903 18.9801C3.72409 19.9919 5.44737 19.9919 8.89393 19.9919H11.1061C14.5526 19.9919 16.2759 19.9919 17.451 18.9801C18.626 17.9683 18.8697 16.2746 19.3572 12.8872L19.6359 10.9498C20.0154 8.31276 20.2051 6.99423 19.6646 5.86689C19.1242 4.73954 17.9738 4.05428 15.6731 2.68375L14.2882 1.85881C12.199 0.614233 11.1543 -0.00805664 10 -0.00805664C8.84569 -0.00805664 7.80104 0.614234 5.71175 1.85881L4.32691 2.68375C2.02619 4.05428 0.875827 4.73954 0.335366 5.86689ZM6.2501 15.9917C6.2501 15.5775 6.58589 15.2417 7.0001 15.2417H13.0001C13.4143 15.2417 13.7501 15.5775 13.7501 15.9917C13.7501 16.4059 13.4143 16.7417 13.0001 16.7417H7.0001C6.58589 16.7417 6.2501 16.4059 6.2501 15.9917Z" fill="white"/>
</svg>
