<svg width="25" height="26" viewBox="0 0 25 26" fill="none" xmlns="http://www.w3.org/2000/svg">
<g id="Vector">
<path d="M12.5073 2.63328C15.8491 2.63328 16.2449 2.64793 17.5591 2.70656C18.7805 2.7603 19.4401 2.9655 19.8798 3.1365C20.4612 3.36124 20.8814 3.63484 21.3162 4.06967C21.7559 4.50938 22.0246 4.92466 22.2494 5.50605C22.4204 5.94577 22.6256 6.61022 22.6793 7.82675C22.7379 9.14588 22.7526 9.54162 22.7526 12.8785C22.7526 16.2203 22.7379 16.6161 22.6793 17.9303C22.6256 19.1517 22.4204 19.8113 22.2494 20.251C22.0246 20.8324 21.751 21.2526 21.3162 21.6874C20.8765 22.1271 20.4612 22.3958 19.8798 22.6206C19.4401 22.7916 18.7757 22.9968 17.5591 23.0505C16.24 23.1091 15.8442 23.1238 12.5073 23.1238C9.16553 23.1238 8.76979 23.1091 7.45554 23.0505C6.23412 22.9968 5.57456 22.7916 5.13484 22.6206C4.55345 22.3958 4.13328 22.1222 3.69846 21.6874C3.25875 21.2477 2.99003 20.8324 2.76529 20.251C2.59429 19.8113 2.3891 19.1469 2.33535 17.9303C2.27672 16.6112 2.26207 16.2155 2.26207 12.8785C2.26207 9.53674 2.27672 9.141 2.33535 7.82675C2.3891 6.60533 2.59429 5.94577 2.76529 5.50605C2.99003 4.92466 3.26363 4.50449 3.69846 4.06967C4.13817 3.62996 4.55345 3.36124 5.13484 3.1365C5.57456 2.9655 6.23901 2.7603 7.45554 2.70656C8.76979 2.64793 9.16553 2.63328 12.5073 2.63328ZM12.5073 0.380981C9.11178 0.380981 8.68673 0.395638 7.35294 0.454267C6.02404 0.512895 5.11042 0.727864 4.31894 1.03566C3.49326 1.35812 2.79461 1.78317 2.10084 2.48182C1.40219 3.17559 0.977135 3.87424 0.65468 4.69503C0.346883 5.4914 0.131913 6.40013 0.0732851 7.72904C0.014657 9.06771 0 9.49277 0 12.8883C0 16.2839 0.014657 16.7089 0.0732851 18.0427C0.131913 19.3716 0.346883 20.2852 0.65468 21.0767C0.977135 21.9024 1.40219 22.601 2.10084 23.2948C2.79461 23.9886 3.49326 24.4185 4.31405 24.7361C5.11042 25.0439 6.01915 25.2588 7.34806 25.3175C8.68184 25.3761 9.1069 25.3908 12.5024 25.3908C15.898 25.3908 16.323 25.3761 17.6568 25.3175C18.9857 25.2588 19.8994 25.0439 20.6908 24.7361C21.5116 24.4185 22.2103 23.9886 22.904 23.2948C23.5978 22.601 24.0278 21.9024 24.3453 21.0816C24.6531 20.2852 24.8681 19.3765 24.9267 18.0476C24.9853 16.7138 25 16.2887 25 12.8932C25 9.49765 24.9853 9.0726 24.9267 7.73881C24.8681 6.4099 24.6531 5.49628 24.3453 4.7048C24.0375 3.87424 23.6125 3.17559 22.9138 2.48182C22.2201 1.78806 21.5214 1.35812 20.7006 1.04055C19.9042 0.73275 18.9955 0.51778 17.6666 0.459152C16.3279 0.395638 15.9029 0.380981 12.5073 0.380981Z" fill="#131313"/>
<path d="M12.5073 6.46365C8.96033 6.46365 6.08267 9.34131 6.08267 12.8883C6.08267 16.4353 8.96033 19.313 12.5073 19.313C16.0543 19.313 18.932 16.4353 18.932 12.8883C18.932 9.34131 16.0543 6.46365 12.5073 6.46365ZM12.5073 17.0558C10.2062 17.0558 8.33985 15.1895 8.33985 12.8883C8.33985 10.5872 10.2062 8.72083 12.5073 8.72083C14.8085 8.72083 16.6748 10.5872 16.6748 12.8883C16.6748 15.1895 14.8085 17.0558 12.5073 17.0558Z" fill="#131313"/>
<path d="M20.6859 6.20955C20.6859 7.04011 20.0117 7.70945 19.186 7.70945C18.3555 7.70945 17.6861 7.03523 17.6861 6.20955C17.6861 5.37898 18.3604 4.70964 19.186 4.70964C20.0117 4.70964 20.6859 5.38387 20.6859 6.20955Z" fill="#131313"/>
</g>
</svg>
