<svg width="22" height="22" viewBox="0 0 22 22" fill="none" xmlns="http://www.w3.org/2000/svg">
<path id="Vector" d="M1 10.0824C0.585786 10.0824 0.25 10.4182 0.25 10.8324C0.25 11.2466 0.585786 11.5824 1 11.5824L1 10.0824ZM15 10.8324L15.4881 11.4018C15.6543 11.2594 15.75 11.0513 15.75 10.8324C15.75 10.6135 15.6543 10.4054 15.4881 10.263L15 10.8324ZM11.9881 7.26295C11.6736 6.99339 11.2001 7.02981 10.9306 7.3443C10.661 7.6588 10.6974 8.13227 11.0119 8.40184L11.9881 7.26295ZM11.0119 13.263C10.6974 13.5325 10.661 14.006 10.9306 14.3205C11.2001 14.635 11.6736 14.6714 11.9881 14.4018L11.0119 13.263ZM13.9992 0.833374V0.083374V0.833374ZM14.9992 0.833374V1.58337V0.833374ZM20.9992 6.83337H21.7492H20.9992ZM20.9992 14.8334H20.2492H20.9992ZM14.9992 20.8334V21.5834V20.8334ZM13.9992 20.8334V20.0834V20.8334ZM8.87792 19.9547L9.40825 19.4244L8.87792 19.9547ZM8.87792 1.71205L8.34759 1.18172V1.18172L8.87792 1.71205ZM7.25099 5.8292C7.24868 6.24341 7.58259 6.58106 7.9968 6.58336C8.41101 6.58567 8.74866 6.25176 8.75097 5.83755L7.25099 5.8292ZM8.75097 15.8292C8.74866 15.415 8.41101 15.0811 7.9968 15.0834C7.58259 15.0857 7.24868 15.4233 7.25099 15.8375L8.75097 15.8292ZM1 10.8324L1 11.5824L15 11.5824V10.8324V10.0824L1 10.0824L1 10.8324ZM15 10.8324L15.4881 10.263L11.9881 7.26295L11.5 7.8324L11.0119 8.40184L14.5119 11.4018L15 10.8324ZM15 10.8324L14.5119 10.263L11.0119 13.263L11.5 13.8324L11.9881 14.4018L15.4881 11.4018L15 10.8324ZM13.9992 0.833374V1.58337H14.9992V0.833374V0.083374H13.9992V0.833374ZM20.9992 6.83337H20.2492V14.8334H20.9992H21.7492V6.83337H20.9992ZM14.9992 20.8334V20.0834H13.9992V20.8334V21.5834H14.9992V20.8334ZM13.9992 20.8334V20.0834C12.5638 20.0834 11.5627 20.0818 10.8074 19.9802C10.0736 19.8816 9.68501 19.7011 9.40825 19.4244L8.87792 19.9547L8.34759 20.485C8.9495 21.0869 9.70738 21.3458 10.6075 21.4669C11.486 21.585 12.6062 21.5834 13.9992 21.5834V20.8334ZM20.9992 14.8334H20.2492C20.2492 16.2688 20.2476 17.2699 20.1461 18.0253C20.0474 18.759 19.867 19.1476 19.5902 19.4244L20.1206 19.9547L20.6509 20.485C21.2528 19.8831 21.5117 19.1252 21.6327 18.2251C21.7508 17.3466 21.7492 16.2264 21.7492 14.8334H20.9992ZM14.9992 20.8334V21.5834C16.3923 21.5834 17.5125 21.585 18.391 21.4669C19.2911 21.3458 20.049 21.0869 20.6509 20.485L20.1206 19.9547L19.5902 19.4244C19.3135 19.7011 18.9249 19.8816 18.1911 19.9802C17.4358 20.0818 16.4347 20.0834 14.9992 20.0834V20.8334ZM14.9992 0.833374V1.58337C16.4347 1.58337 17.4358 1.58497 18.1911 1.68652C18.9249 1.78517 19.3135 1.96562 19.5902 2.24238L20.1206 1.71205L20.6509 1.18172C20.049 0.579807 19.2911 0.320913 18.391 0.199897C17.5125 0.0817812 16.3923 0.083374 14.9992 0.083374V0.833374ZM20.9992 6.83337H21.7492C21.7492 5.44036 21.7508 4.32016 21.6327 3.44162C21.5117 2.54151 21.2528 1.78364 20.6509 1.18172L20.1206 1.71205L19.5902 2.24238C19.867 2.51915 20.0474 2.90772 20.1461 3.64149C20.2476 4.39684 20.2492 5.39796 20.2492 6.83337H20.9992ZM13.9992 0.833374V0.083374C12.6062 0.083374 11.486 0.0817812 10.6075 0.199897C9.70738 0.320913 8.9495 0.579807 8.34759 1.18172L8.87792 1.71205L9.40825 2.24238C9.68501 1.96562 10.0736 1.78517 10.8074 1.68652C11.5627 1.58497 12.5638 1.58337 13.9992 1.58337V0.833374ZM8.00098 5.83337L8.75097 5.83755C8.75705 4.74405 8.78545 3.96897 8.8935 3.38072C8.99762 2.81391 9.16479 2.48584 9.40825 2.24238L8.87792 1.71205L8.34759 1.18172C7.82266 1.70665 7.55742 2.35173 7.41818 3.10973C7.28289 3.84629 7.25701 4.74767 7.25099 5.8292L8.00098 5.83337ZM8.00098 15.8334L7.25099 15.8375C7.25701 16.9191 7.28289 17.8205 7.41818 18.557C7.55742 19.315 7.82266 19.9601 8.34759 20.485L8.87792 19.9547L9.40825 19.4244C9.16479 19.1809 8.99762 18.8528 8.8935 18.286C8.78545 17.6978 8.75705 16.9227 8.75097 15.8292L8.00098 15.8334Z" fill="#F32828"/>
</svg>
