<svg width="22" height="22" viewBox="0 0 22 22" fill="none" xmlns="http://www.w3.org/2000/svg">
<path fill-rule="evenodd" clip-rule="evenodd" d="M11 0.241943C6.71983 0.241943 3.25004 3.71174 3.25004 7.99194V8.69605C3.25004 9.39297 3.04375 10.0743 2.65717 10.6542L1.50856 12.3771C0.175468 14.3767 1.19318 17.0947 3.51177 17.7271C4.26738 17.9332 5.02937 18.1075 5.79578 18.25L5.79768 18.2551C6.56667 20.307 8.62198 21.7419 11 21.7419C13.378 21.7419 15.4333 20.307 16.2023 18.2551L16.2042 18.25C16.9706 18.1075 17.7327 17.9332 18.4883 17.7271C20.8069 17.0947 21.8246 14.3767 20.4915 12.3771L19.3429 10.6542C18.9563 10.0743 18.75 9.39297 18.75 8.69605V7.99194C18.75 3.71174 15.2802 0.241943 11 0.241943ZM14.3764 18.5289C12.1335 18.7969 9.86644 18.7969 7.62349 18.5289C8.33444 19.5504 9.57101 20.2419 11 20.2419C12.4289 20.2419 13.6655 19.5504 14.3764 18.5289ZM4.75004 7.99194C4.75004 4.54016 7.54826 1.74194 11 1.74194C14.4518 1.74194 17.25 4.54016 17.25 7.99194V8.69605C17.25 9.68911 17.544 10.6599 18.0948 11.4862L19.2434 13.2091C20.0086 14.3569 19.4245 15.917 18.0936 16.2799C13.4494 17.5465 8.5507 17.5465 3.90644 16.2799C2.57561 15.917 1.99147 14.3569 2.75664 13.2091L3.90524 11.4862C4.45609 10.6599 4.75004 9.68911 4.75004 8.69605V7.99194Z" fill="white"/>
</svg>
