<svg width="18" height="19" viewBox="0 0 18 19" fill="none" xmlns="http://www.w3.org/2000/svg">
<path id="Vector" d="M3.45 7.9C3.45 8.31421 3.78579 8.65 4.2 8.65C4.61421 8.65 4.95 8.31421 4.95 7.9H3.45ZM13.05 7.9C13.05 8.31421 13.3858 8.65 13.8 8.65C14.2142 8.65 14.55 8.31421 14.55 7.9H13.05ZM5.8 11.95C5.38579 11.95 5.05 12.2858 5.05 12.7C5.05 13.1142 5.38579 13.45 5.8 13.45V11.95ZM5.8072 13.45C6.22141 13.45 6.5572 13.1142 6.5572 12.7C6.5572 12.2858 6.22141 11.95 5.8072 11.95V13.45ZM8.9928 11.95C8.57859 11.95 8.2428 12.2858 8.2428 12.7C8.2428 13.1142 8.57859 13.45 8.9928 13.45V11.95ZM9 13.45C9.41421 13.45 9.75 13.1142 9.75 12.7C9.75 12.2858 9.41421 11.95 9 11.95V13.45ZM12.1928 11.95C11.7786 11.95 11.4428 12.2858 11.4428 12.7C11.4428 13.1142 11.7786 13.45 12.1928 13.45V11.95ZM12.2 13.45C12.6142 13.45 12.95 13.1142 12.95 12.7C12.95 12.2858 12.6142 11.95 12.2 11.95V13.45ZM5.8 7.9V8.65H12.2V7.9V7.15H5.8V7.9ZM12.2 17.5V16.75H5.8V17.5V18.25H12.2V17.5ZM5.8 17.5V16.75C4.64743 16.75 3.85845 16.7484 3.26648 16.6688C2.6961 16.5921 2.42217 16.4556 2.23327 16.2667L1.70294 16.7971L1.17261 17.3274C1.68666 17.8414 2.32989 18.0564 3.06661 18.1554C3.78176 18.2516 4.68983 18.25 5.8 18.25V17.5ZM1 12.7H0.25C0.25 13.8102 0.248407 14.7182 0.344556 15.4334C0.443605 16.1701 0.658565 16.8133 1.17261 17.3274L1.70294 16.7971L2.23327 16.2667C2.04438 16.0778 1.90787 15.8039 1.83118 15.2335C1.75159 14.6416 1.75 13.8526 1.75 12.7H1ZM17 12.7H16.25C16.25 13.8526 16.2484 14.6416 16.1688 15.2335C16.0921 15.8039 15.9556 16.0778 15.7667 16.2667L16.2971 16.7971L16.8274 17.3274C17.3414 16.8133 17.5564 16.1701 17.6554 15.4334C17.7516 14.7182 17.75 13.8102 17.75 12.7H17ZM12.2 17.5V18.25C13.3102 18.25 14.2182 18.2516 14.9334 18.1554C15.6701 18.0564 16.3133 17.8414 16.8274 17.3274L16.2971 16.7971L15.7667 16.2667C15.5778 16.4556 15.3039 16.5921 14.7335 16.6688C14.1416 16.7484 13.3526 16.75 12.2 16.75V17.5ZM12.2 7.9V8.65C13.3526 8.65 14.1416 8.65159 14.7335 8.73118C15.3039 8.80787 15.5778 8.94438 15.7667 9.13327L16.2971 8.60294L16.8274 8.07261C16.3133 7.55856 15.6701 7.34361 14.9334 7.24456C14.2182 7.14841 13.3102 7.15 12.2 7.15V7.9ZM17 12.7H17.75C17.75 11.5898 17.7516 10.6818 17.6554 9.96661C17.5564 9.22989 17.3414 8.58666 16.8274 8.07261L16.2971 8.60294L15.7667 9.13327C15.9556 9.32217 16.0921 9.5961 16.1688 10.1665C16.2484 10.7584 16.25 11.5474 16.25 12.7H17ZM5.8 7.9V7.15C4.68983 7.15 3.78176 7.14841 3.06661 7.24456C2.32989 7.34361 1.68666 7.55856 1.17261 8.07261L1.70294 8.60294L2.23327 9.13327C2.42217 8.94438 2.6961 8.80787 3.26648 8.73118C3.85845 8.65159 4.64743 8.65 5.8 8.65V7.9ZM1 12.7H1.75C1.75 11.5474 1.75159 10.7584 1.83118 10.1665C1.90787 9.5961 2.04438 9.32217 2.23327 9.13327L1.70294 8.60294L1.17261 8.07261C0.658565 8.58666 0.443605 9.22989 0.344556 9.96661C0.248407 10.6818 0.25 11.5898 0.25 12.7H1ZM4.2 7.9H4.95V6.3H4.2H3.45V7.9H4.2ZM13.8 6.3H13.05V7.9H13.8H14.55V6.3H13.8ZM9 1.5V2.25C11.2368 2.25 13.05 4.06325 13.05 6.3H13.8H14.55C14.55 3.23482 12.0652 0.75 9 0.75V1.5ZM4.2 6.3H4.95C4.95 4.06325 6.76325 2.25 9 2.25V1.5V0.75C5.93482 0.75 3.45 3.23482 3.45 6.3H4.2ZM5.8 12.7V13.45H5.8072V12.7V11.95H5.8V12.7ZM8.9928 12.7V13.45H9V12.7V11.95H8.9928V12.7ZM12.1928 12.7V13.45H12.2V12.7V11.95H12.1928V12.7Z" fill="#1D4ED8"/>
</svg>
