<svg width="23" height="23" viewBox="0 0 23 23" fill="none" xmlns="http://www.w3.org/2000/svg">
<path d="M11.668 12.7339C12.0822 12.7339 12.418 13.0697 12.418 13.4839V17.4839C12.418 17.8981 12.0822 18.2339 11.668 18.2339C11.2538 18.2339 10.918 17.8981 10.918 17.4839V13.4839C10.918 13.0697 11.2538 12.7339 11.668 12.7339Z" fill="#1D4ED8"/>
<path fill-rule="evenodd" clip-rule="evenodd" d="M4.91797 8.78665V7.48389C4.91797 3.75596 7.94005 0.733887 11.668 0.733887C15.3959 0.733887 18.418 3.75596 18.418 7.48389V8.78665C18.6448 8.8026 18.8586 8.82337 19.0597 8.85041C19.9598 8.97143 20.7177 9.23032 21.3196 9.83224C21.9215 10.4342 22.1804 11.192 22.3014 12.0921C22.418 12.9591 22.418 14.0614 22.418 15.429V15.5388C22.418 16.9063 22.418 18.0087 22.3014 18.8756C22.1804 19.7757 21.9215 20.5336 21.3196 21.1355C20.7177 21.7375 19.9598 21.9963 19.0597 22.1174C18.1928 22.2339 17.0904 22.2339 15.7228 22.2339H7.6131C6.24551 22.2339 5.14319 22.2339 4.27622 22.1174C3.37611 21.9963 2.61824 21.7375 2.01632 21.1355C1.4144 20.5336 1.15551 19.7757 1.03449 18.8756C0.917933 18.0087 0.917949 16.9064 0.917969 15.5388V15.429C0.917949 14.0614 0.917933 12.9591 1.03449 12.0921C1.15551 11.192 1.4144 10.4342 2.01632 9.83224C2.61824 9.23032 3.37611 8.97143 4.27622 8.85041C4.47735 8.82337 4.69114 8.8026 4.91797 8.78665ZM6.41797 7.48389C6.41797 4.58439 8.76848 2.23389 11.668 2.23389C14.5675 2.23389 16.918 4.58439 16.918 7.48389V8.73733C16.5444 8.73387 16.1464 8.73388 15.7228 8.73389H7.6131C7.18958 8.73388 6.7915 8.73387 6.41797 8.73733V7.48389ZM4.47609 10.337C3.74232 10.4357 3.35374 10.6161 3.07698 10.8929C2.80022 11.1697 2.61977 11.5582 2.52112 12.292C2.41956 13.0474 2.41797 14.0485 2.41797 15.4839C2.41797 16.9193 2.41956 17.9204 2.52112 18.6758C2.61977 19.4095 2.80022 19.7981 3.07698 20.0749C3.35374 20.3516 3.74231 20.5321 4.47609 20.6307C5.23144 20.7323 6.23255 20.7339 7.66797 20.7339H15.668C17.1034 20.7339 18.1045 20.7323 18.8598 20.6307C19.5936 20.5321 19.9822 20.3516 20.259 20.0749C20.5357 19.7981 20.7162 19.4095 20.8148 18.6758C20.9164 17.9204 20.918 16.9193 20.918 15.4839C20.918 14.0485 20.9164 13.0474 20.8148 12.292C20.7162 11.5582 20.5357 11.1697 20.259 10.8929C19.9822 10.6161 19.5936 10.4357 18.8598 10.337C18.1045 10.2355 17.1034 10.2339 15.668 10.2339H7.66797C6.23255 10.2339 5.23144 10.2355 4.47609 10.337Z" fill="#1D4ED8"/>
</svg>
