<svg width="16" height="22" viewBox="0 0 16 22" fill="none" xmlns="http://www.w3.org/2000/svg">
<g id="Vector">
<path fill-rule="evenodd" clip-rule="evenodd" d="M8 0.741943C5.37665 0.741943 3.25 2.86859 3.25 5.49194C3.25 8.1153 5.37665 10.2419 8 10.2419C10.6234 10.2419 12.75 8.1153 12.75 5.49194C12.75 2.86859 10.6234 0.741943 8 0.741943ZM4.75 5.49194C4.75 3.69702 6.20507 2.24194 8 2.24194C9.79493 2.24194 11.25 3.69702 11.25 5.49194C11.25 7.28687 9.79493 8.74194 8 8.74194C6.20507 8.74194 4.75 7.28687 4.75 5.49194Z" fill="#131313"/>
<path fill-rule="evenodd" clip-rule="evenodd" d="M8 11.7419C5.96067 11.7419 4.07752 12.2127 2.67815 13.0123C1.3 13.7998 0.25 15.0021 0.25 16.4919C0.25 17.9818 1.3 19.184 2.67815 19.9716C4.07752 20.7712 5.96067 21.2419 8 21.2419C10.0393 21.2419 11.9225 20.7712 13.3219 19.9716C14.7 19.184 15.75 17.9818 15.75 16.4919C15.75 15.0021 14.7 13.7998 13.3219 13.0123C11.9225 12.2127 10.0393 11.7419 8 11.7419ZM1.75 16.4919C1.75 15.7727 2.26701 14.9749 3.42236 14.3147C4.55649 13.6666 6.17334 13.2419 8 13.2419C9.82666 13.2419 11.4435 13.6666 12.5776 14.3147C13.733 14.9749 14.25 15.7727 14.25 16.4919C14.25 17.2112 13.733 18.009 12.5776 18.6692C11.4435 19.3173 9.82666 19.7419 8 19.7419C6.17334 19.7419 4.55649 19.3173 3.42236 18.6692C2.26701 18.009 1.75 17.2112 1.75 16.4919Z" fill="#131313"/>
</g>
</svg>
