<svg width="20" height="22" viewBox="0 0 20 22" fill="none" xmlns="http://www.w3.org/2000/svg">
<g id="Saudi_Riyal_Symbol-2 1" clip-path="url(#clip0_1067_429)">
<path id="Vector" d="M12.2428 19.1486C11.9037 19.9004 11.6796 20.7162 11.5938 21.5718L18.7687 20.0466C19.1078 19.2949 19.3317 18.4789 19.4178 17.6234L12.2428 19.1486Z" fill="#1D4ED8"/>
<path id="Vector_2" d="M18.7689 15.4772C19.108 14.7256 19.3321 13.9095 19.418 13.054L13.8289 14.2427V11.9576L18.7688 10.9078C19.1078 10.1562 19.3319 9.34014 19.4178 8.48457L13.8287 9.67226V1.45426C12.9723 1.93512 12.2117 2.57519 11.5934 3.3302V10.1475L9.35818 10.6227V0.336548C8.50177 0.817235 7.74119 1.45748 7.12292 2.21248V11.0976L2.1215 12.1604C1.78245 12.912 1.55816 13.728 1.47213 14.5836L7.12292 13.3827V16.2604L1.067 17.5473C0.727948 18.2989 0.50383 19.115 0.417969 19.9705L6.75682 18.6235C7.27284 18.5161 7.71634 18.2111 8.00468 17.7912L9.16719 16.0677C9.28787 15.8894 9.35818 15.6741 9.35818 15.4425V12.9076L11.5934 12.4325V17.0027L18.7689 15.4772Z" fill="#1D4ED8"/>
</g>
<defs>
<clipPath id="clip0_1067_429">
<rect width="19" height="21.2353" fill="white" transform="translate(0.417969 0.336548)"/>
</clipPath>
</defs>
</svg>
