<svg width="20" height="22" viewBox="0 0 20 22" fill="none" xmlns="http://www.w3.org/2000/svg">
<g id="Saudi_Riyal_Symbol-2 1" clip-path="url(#clip0_1043_943)">
<path id="Vector" d="M12.7428 19.1486C12.4037 19.9004 12.1796 20.7162 12.0938 21.5718L19.2687 20.0466C19.6078 19.2949 19.8317 18.4789 19.9178 17.6234L12.7428 19.1486Z" fill="white"/>
<path id="Vector_2" d="M19.2689 15.4772C19.608 14.7256 19.8321 13.9095 19.918 13.054L14.3289 14.2427V11.9576L19.2688 10.9078C19.6078 10.1562 19.8319 9.34014 19.9178 8.48457L14.3287 9.67226V1.45426C13.4723 1.93512 12.7117 2.57519 12.0934 3.3302V10.1475L9.85818 10.6227V0.336548C9.00177 0.817235 8.24119 1.45748 7.62292 2.21248V11.0976L2.6215 12.1604C2.28245 12.912 2.05816 13.728 1.97213 14.5836L7.62292 13.3827V16.2604L1.567 17.5473C1.22795 18.2989 1.00383 19.115 0.917969 19.9705L7.25682 18.6235C7.77284 18.5161 8.21634 18.2111 8.50468 17.7912L9.66719 16.0677C9.78787 15.8894 9.85818 15.6741 9.85818 15.4425V12.9076L12.0934 12.4325V17.0027L19.2689 15.4772Z" fill="white"/>
</g>
<defs>
<clipPath id="clip0_1043_943">
<rect width="19" height="21.2353" fill="white" transform="translate(0.917969 0.336548)"/>
</clipPath>
</defs>
</svg>
