<svg width="18" height="21" viewBox="0 0 18 21" fill="none" xmlns="http://www.w3.org/2000/svg">
<g id="Saudi_Riyal_Symbol-2 1" clip-path="url(#clip0_771_7347)">
<path id="Vector" d="M11.2028 17.822C10.8816 18.5342 10.6692 19.3071 10.5879 20.1176L17.3852 18.6727C17.7065 17.9606 17.9186 17.1876 18.0001 16.377L11.2028 17.822Z" fill="#131313"/>
<path id="Vector_2" d="M17.3851 14.3438C17.7063 13.6317 17.9187 12.8586 18 12.0481L12.7051 13.1742V11.0094L17.385 10.0149C17.7062 9.30279 17.9185 8.52972 17.9998 7.71918L12.7049 8.84436V1.05889C11.8936 1.51444 11.173 2.12082 10.5873 2.83609V9.29462L8.46968 9.74473V0C7.65833 0.455388 6.93778 1.06193 6.35206 1.7772V10.1947L1.61387 11.2015C1.29267 11.9136 1.08019 12.6867 0.998683 13.4972L6.35206 12.3595V15.0858L0.61487 16.3049C0.293664 17.017 0.0813422 17.7901 0 18.6006L6.00523 17.3244C6.49408 17.2228 6.91425 16.9337 7.18741 16.536L8.28874 14.9032V14.9029C8.40306 14.734 8.46968 14.5303 8.46968 14.3109V11.9094L10.5873 11.4593V15.789L17.385 14.3434L17.3851 14.3438Z" fill="#131313"/>
</g>
<defs>
<clipPath id="clip0_771_7347">
<rect width="18" height="20.1176" fill="white"/>
</clipPath>
</defs>
</svg>
