<svg width="22" height="22" viewBox="0 0 22 22" fill="none" xmlns="http://www.w3.org/2000/svg">
<path id="Vector" fill-rule="evenodd" clip-rule="evenodd" d="M10.5 1.74194C5.66751 1.74194 1.75 5.65945 1.75 10.4919C1.75 15.3244 5.66751 19.2419 10.5 19.2419C15.3325 19.2419 19.25 15.3244 19.25 10.4919C19.25 5.65945 15.3325 1.74194 10.5 1.74194ZM0.25 10.4919C0.25 4.83102 4.83908 0.241943 10.5 0.241943C16.1609 0.241943 20.75 4.83102 20.75 10.4919C20.75 13.0525 19.8111 15.3937 18.2589 17.1901L21.5303 20.4616C21.8232 20.7545 21.8232 21.2294 21.5303 21.5223C21.2374 21.8152 20.7626 21.8152 20.4697 21.5223L17.1982 18.2508C15.4017 19.8031 13.0605 20.7419 10.5 20.7419C4.83908 20.7419 0.25 16.1529 0.25 10.4919Z" fill="#131313"/>
</svg>
