<svg width="19" height="21" viewBox="0 0 19 21" fill="none" xmlns="http://www.w3.org/2000/svg">
<path id="Vector" d="M5.31051 3.52442L5.69268 4.16975V4.16975L5.31051 3.52442ZM5.31051 17.8089L4.92835 18.4542L4.92835 18.4542L5.31051 17.8089ZM13.5605 18.1814L13.1783 17.5361V17.5361L13.5605 18.1814ZM5.93949 18.1814L6.32165 17.5361L6.32165 17.5361L5.93949 18.1814ZM9.75 19.8333V19.0833V19.8333ZM14.1895 17.8089L14.5717 18.4542V18.4542L14.1895 17.8089ZM14.1895 3.52442L13.8073 4.16975V4.16975L14.1895 3.52442ZM13.5605 3.15194L13.9427 2.50661V2.50661L13.5605 3.15194ZM5.93949 3.15194L5.55732 2.50661V2.50661L5.93949 3.15194ZM13.5605 3.15194L13.1783 3.79727L13.8073 4.16975L14.1895 3.52442L14.5717 2.87909L13.9427 2.50661L13.5605 3.15194ZM18 10.2942H17.25V11.0391H18H18.75V10.2942H18ZM14.1895 17.8089L13.8073 17.1636L13.1783 17.5361L13.5605 18.1814L13.9427 18.8267L14.5717 18.4542L14.1895 17.8089ZM5.93949 18.1814L6.32165 17.5361L5.69267 17.1636L5.31051 17.8089L4.92835 18.4542L5.55733 18.8267L5.93949 18.1814ZM1.5 11.0391H2.25V10.2942H1.5H0.75V11.0391H1.5ZM5.31051 3.52442L5.69268 4.16975L6.32165 3.79727L5.93949 3.15194L5.55732 2.50661L4.92835 2.87909L5.31051 3.52442ZM1.5 10.2942H2.25C2.25 9.17867 2.2508 8.39458 2.31037 7.77465C2.36845 7.17036 2.47824 6.78139 2.66409 6.45121L2.01051 6.08333L1.35693 5.71545C1.03227 6.29225 0.886808 6.90741 0.817254 7.63116C0.749202 8.33927 0.75 9.20712 0.75 10.2942H1.5ZM5.31051 3.52442L4.92835 2.87909C4.01115 3.42225 3.27604 3.85659 2.71034 4.27246C2.1308 4.69852 1.68215 5.13767 1.35693 5.71545L2.01051 6.08333L2.66409 6.45121C2.84938 6.12202 3.12091 5.83236 3.59882 5.48102C4.09058 5.11951 4.75022 4.72787 5.69268 4.16975L5.31051 3.52442ZM5.31051 17.8089L5.69268 17.1636C4.75022 16.6055 4.09058 16.2138 3.59882 15.8523C3.12091 15.501 2.84938 15.2113 2.66409 14.8821L2.01051 15.25L1.35693 15.6179C1.68215 16.1957 2.13079 16.6348 2.71034 17.0609C3.27604 17.4767 4.01115 17.9111 4.92835 18.4542L5.31051 17.8089ZM1.5 11.0391H0.75C0.75 12.1262 0.749202 12.9941 0.817254 13.7022C0.886808 14.4259 1.03227 15.0411 1.35693 15.6179L2.01051 15.25L2.66409 14.8821C2.47824 14.5519 2.36845 14.163 2.31037 13.5587C2.2508 12.9388 2.25 12.1547 2.25 11.0391H1.5ZM13.5605 18.1814L13.1783 17.5361C12.2357 18.0943 11.5755 18.4843 11.0247 18.7402C10.4891 18.9891 10.1128 19.0833 9.75 19.0833V19.8333V20.5833C10.4082 20.5833 11.0074 20.4023 11.6568 20.1005C12.2912 19.8058 13.0256 19.3698 13.9427 18.8267L13.5605 18.1814ZM5.93949 18.1814L5.55732 18.8267C6.47437 19.3698 7.20884 19.8058 7.8432 20.1005C8.4926 20.4023 9.09182 20.5833 9.75 20.5833V19.8333V19.0833C9.38715 19.0833 9.01095 18.9891 8.47527 18.7402C7.92454 18.4843 7.26426 18.0943 6.32165 17.5361L5.93949 18.1814ZM18 11.0391H17.25C17.25 12.1547 17.2492 12.9388 17.1896 13.5587C17.1316 14.163 17.0218 14.5519 16.8359 14.8821L17.4895 15.25L18.1431 15.6179C18.4677 15.0411 18.6132 14.4259 18.6827 13.7022C18.7508 12.9941 18.75 12.1262 18.75 11.0391H18ZM14.1895 17.8089L14.5717 18.4542C15.4889 17.9111 16.224 17.4767 16.7897 17.0609C17.3692 16.6348 17.8178 16.1957 18.1431 15.6179L17.4895 15.25L16.8359 14.8821C16.6506 15.2113 16.3791 15.501 15.9012 15.8523C15.4094 16.2138 14.7498 16.6055 13.8073 17.1636L14.1895 17.8089ZM14.1895 3.52442L13.8073 4.16975C14.7498 4.72787 15.4094 5.11951 15.9012 5.48102C16.3791 5.83236 16.6506 6.12202 16.8359 6.45121L17.4895 6.08333L18.1431 5.71545C17.8178 5.13767 17.3692 4.69852 16.7897 4.27246C16.224 3.85659 15.4888 3.42225 14.5717 2.87909L14.1895 3.52442ZM18 10.2942H18.75C18.75 9.20712 18.7508 8.33927 18.6827 7.63116C18.6132 6.90741 18.4677 6.29225 18.1431 5.71545L17.4895 6.08333L16.8359 6.45121C17.0218 6.78139 17.1316 7.17037 17.1896 7.77465C17.2492 8.39458 17.25 9.17867 17.25 10.2942H18ZM13.5605 3.15194L13.9427 2.50661C13.0256 1.96353 12.2912 1.52757 11.6568 1.23282C11.0074 0.931078 10.4082 0.75 9.75 0.75V1.5V2.25C10.1128 2.25 10.4891 2.34425 11.0247 2.59315C11.5755 2.84904 12.2357 3.23905 13.1783 3.79727L13.5605 3.15194ZM5.93949 3.15194L6.32165 3.79727C7.26426 3.23905 7.92454 2.84904 8.47527 2.59315C9.01095 2.34425 9.38715 2.25 9.75 2.25V1.5V0.75C9.09182 0.75 8.4926 0.931078 7.8432 1.23282C7.20884 1.52757 6.47437 1.96353 5.55732 2.50661L5.93949 3.15194ZM12.5 10.6667H11.75C11.75 11.7712 10.8546 12.6667 9.75 12.6667V13.4167V14.1667C11.683 14.1667 13.25 12.5997 13.25 10.6667H12.5ZM9.75 13.4167V12.6667C8.64543 12.6667 7.75 11.7712 7.75 10.6667H7H6.25C6.25 12.5997 7.817 14.1667 9.75 14.1667V13.4167ZM7 10.6667H7.75C7.75 9.5621 8.64543 8.66667 9.75 8.66667V7.91667V7.16667C7.817 7.16667 6.25 8.73367 6.25 10.6667H7ZM9.75 7.91667V8.66667C10.8546 8.66667 11.75 9.5621 11.75 10.6667H12.5H13.25C13.25 8.73367 11.683 7.16667 9.75 7.16667V7.91667Z" fill="#1D4ED8"/>
</svg>
