<svg width="18" height="21" viewBox="0 0 18 21" fill="none" xmlns="http://www.w3.org/2000/svg">
<path id="Vector" fill-rule="evenodd" clip-rule="evenodd" d="M14 0.985229C12.2051 0.985229 10.75 2.4403 10.75 4.23523C10.75 4.43114 10.7673 4.62299 10.8006 4.80935L6.06991 8.1208C6.04587 8.13763 6.02312 8.15561 6.00168 8.17462C5.44993 7.7427 4.75503 7.48523 4 7.48523C2.20507 7.48523 0.75 8.9403 0.75 10.7352C0.75 12.5302 2.20507 13.9852 4 13.9852C4.75503 13.9852 5.44993 13.7278 6.00168 13.2958C6.02312 13.3148 6.04587 13.3328 6.06991 13.3497L10.8006 16.6611C10.7673 16.8475 10.75 17.0393 10.75 17.2352C10.75 19.0302 12.2051 20.4852 14 20.4852C15.7949 20.4852 17.25 19.0302 17.25 17.2352C17.25 15.4403 15.7949 13.9852 14 13.9852C12.9472 13.9852 12.0113 14.4858 11.4174 15.2619L6.93806 12.1264C7.13809 11.7047 7.25 11.233 7.25 10.7352C7.25 10.2374 7.13809 9.7658 6.93806 9.34408L11.4174 6.20853C12.0113 6.98465 12.9472 7.48523 14 7.48523C15.7949 7.48523 17.25 6.03016 17.25 4.23523C17.25 2.4403 15.7949 0.985229 14 0.985229ZM12.25 4.23523C12.25 3.26873 13.0335 2.48523 14 2.48523C14.9665 2.48523 15.75 3.26873 15.75 4.23523C15.75 5.20173 14.9665 5.98523 14 5.98523C13.0335 5.98523 12.25 5.20173 12.25 4.23523ZM4 8.98523C3.0335 8.98523 2.25 9.76873 2.25 10.7352C2.25 11.7017 3.0335 12.4852 4 12.4852C4.9665 12.4852 5.75 11.7017 5.75 10.7352C5.75 9.76873 4.9665 8.98523 4 8.98523ZM14 15.4852C13.0335 15.4852 12.25 16.2687 12.25 17.2352C12.25 18.2017 13.0335 18.9852 14 18.9852C14.9665 18.9852 15.75 18.2017 15.75 17.2352C15.75 16.2687 14.9665 15.4852 14 15.4852Z" fill="#1D4ED8"/>
</svg>
