<svg width="26" height="26" viewBox="0 0 26 26" fill="none" xmlns="http://www.w3.org/2000/svg">
<path id="Vector" d="M25.906 18.8115C25.7267 18.3202 25.3815 18.0546 24.9898 17.8421C24.9167 17.8023 24.8504 17.7625 24.7906 17.7359C24.6711 17.6761 24.5516 17.6164 24.4321 17.5566C23.2104 16.906 22.2544 16.096 21.5971 15.1266C21.4112 14.8544 21.2452 14.5623 21.1124 14.2635C21.0527 14.1042 21.0593 14.0112 21.0991 13.9249C21.139 13.8585 21.1921 13.8054 21.2585 13.759C21.4709 13.6195 21.6834 13.4801 21.8295 13.3871C22.0884 13.2145 22.3009 13.0817 22.4336 12.9888C22.9316 12.6369 23.2835 12.2651 23.5026 11.8468C23.8146 11.2626 23.8545 10.5787 23.6154 9.96127C23.2835 9.08488 22.4602 8.5471 21.4577 8.5471C21.2452 8.5471 21.0394 8.56701 20.8269 8.61349C20.7738 8.62677 20.7141 8.64005 20.661 8.65333C20.6676 8.05579 20.6543 7.42505 20.6012 6.80096C20.4153 4.61663 19.6451 3.47467 18.8484 2.56508C18.3372 1.9941 17.7397 1.50943 17.0691 1.13099C15.8607 0.440506 14.4864 0.088623 12.9926 0.088623C11.4987 0.088623 10.131 0.440506 8.92266 1.13099C8.25209 1.50943 7.65456 1.9941 7.14333 2.56508C6.34661 3.47467 5.58309 4.62327 5.39055 6.80096C5.33744 7.42505 5.32416 8.05579 5.3308 8.65333C5.27769 8.64005 5.22457 8.62677 5.16482 8.61349C4.959 8.56701 4.74654 8.5471 4.54072 8.5471C3.53819 8.5471 2.71491 9.09152 2.38295 9.96127C2.14393 10.5787 2.18377 11.2626 2.49582 11.8468C2.71491 12.2651 3.0668 12.6369 3.56475 12.9888C3.69753 13.0817 3.90335 13.2145 4.16892 13.3871C4.30835 13.4801 4.51417 13.6129 4.71998 13.7457C4.79302 13.7921 4.85277 13.8519 4.89925 13.9249C4.93908 14.0112 4.94572 14.1042 4.87933 14.2768C4.74654 14.5689 4.5872 14.8544 4.4013 15.12C3.75729 16.0628 2.82778 16.8661 1.64599 17.5102C1.02189 17.8421 0.37124 18.0612 0.0923888 18.8115C-0.11343 19.3758 0.0193565 20.0132 0.543862 20.5576C0.736401 20.7568 0.962138 20.9294 1.20779 21.0622C1.71902 21.341 2.26344 21.5601 2.83442 21.7128C2.95393 21.746 3.06016 21.7925 3.15975 21.8589C3.35229 22.0249 3.32573 22.2772 3.57802 22.649C3.70417 22.8415 3.87015 23.0075 4.05605 23.1403C4.59384 23.5121 5.19801 23.532 5.83539 23.5586C6.41301 23.5785 7.06366 23.605 7.8139 23.8507C8.12595 23.9503 8.44463 24.1495 8.81643 24.3818C9.71274 24.9329 10.9344 25.6831 12.9859 25.6831C15.0375 25.6831 16.2657 24.9263 17.1687 24.3752C17.5405 24.1495 17.8592 23.9503 18.1579 23.8507C18.9015 23.605 19.5588 23.5785 20.1364 23.5586C20.7738 23.532 21.378 23.5121 21.9158 23.1403C22.1415 22.9809 22.3274 22.7818 22.4602 22.5428C22.6461 22.2307 22.6395 22.0116 22.8121 21.8589C22.905 21.7925 23.0113 21.746 23.1175 21.7195C23.6885 21.5668 24.2462 21.3477 24.764 21.0622C25.023 20.9228 25.262 20.7369 25.4612 20.5178L25.4678 20.5111C25.9857 19.98 26.1118 19.3559 25.906 18.8115ZM24.0868 19.7874C22.9781 20.3983 22.2345 20.3319 21.6635 20.7037C21.1722 21.0157 21.4643 21.6929 21.1124 21.9386C20.6742 22.2373 19.3862 21.9187 17.7264 22.4697C16.352 22.9212 15.4823 24.2291 13.0125 24.2291C10.5427 24.2291 9.69282 22.9278 8.29857 22.4697C6.63874 21.9187 5.35072 22.244 4.91252 21.9386C4.56064 21.6929 4.84613 21.0157 4.36146 20.7037C3.78384 20.3319 3.04688 20.3983 1.93812 19.7874C1.22771 19.3957 1.63271 19.1567 1.86508 19.0438C5.8885 17.0985 6.53251 14.0909 6.55907 13.8652C6.59227 13.593 6.6321 13.3805 6.33333 13.1083C6.04784 12.8427 4.7731 12.0526 4.41458 11.807C3.83032 11.3954 3.57138 10.9904 3.76392 10.4858C3.89671 10.1405 4.22204 10.0077 4.56064 10.0077C4.66687 10.0077 4.7731 10.021 4.87933 10.0409C5.52334 10.1804 6.14743 10.4991 6.50596 10.592C6.55243 10.6053 6.59227 10.6119 6.63874 10.6119C6.83128 10.6119 6.89768 10.5123 6.8844 10.2932C6.84456 9.58947 6.74497 8.22177 6.85784 6.94038C7.01054 5.18097 7.57488 4.30458 8.25209 3.53442C8.57742 3.16262 10.0978 1.55591 13.0125 1.55591C15.9271 1.55591 17.4475 3.15598 17.7729 3.52778C18.4501 4.29794 19.0144 5.17433 19.1671 6.93374C19.28 8.21513 19.1804 9.58283 19.1339 10.2866C19.1206 10.519 19.187 10.6053 19.3796 10.6053C19.426 10.6053 19.4659 10.5986 19.5124 10.5854C19.8709 10.4991 20.495 10.1737 21.139 10.0343C21.2452 10.0077 21.3514 10.0011 21.4577 10.0011C21.7963 10.0011 22.1216 10.1339 22.2544 10.4791C22.4469 10.9837 22.188 11.3887 21.6037 11.8004C21.2519 12.046 19.9771 12.8361 19.685 13.1017C19.3862 13.3739 19.426 13.5863 19.4592 13.8585C19.4858 14.0843 20.1298 17.0919 24.1532 19.0372C24.3922 19.1501 24.7906 19.3957 24.0868 19.7874Z" fill="#131313"/>
</svg>
