<svg width="23" height="22" viewBox="0 0 23 22" fill="none" xmlns="http://www.w3.org/2000/svg">
<path id="Vector" d="M11.8876 9.65937C11.5947 9.95226 11.5947 10.4271 11.8876 10.72C12.1805 11.0129 12.6554 11.0129 12.9483 10.72L11.8876 9.65937ZM21.418 1.1897H22.168C22.168 0.775484 21.8322 0.439697 21.418 0.439697V1.1897ZM16.0742 0.439697C15.66 0.439697 15.3242 0.775484 15.3242 1.1897C15.3242 1.60391 15.66 1.9397 16.0742 1.9397V0.439697ZM20.668 6.53345C20.668 6.94766 21.0038 7.28345 21.418 7.28345C21.8322 7.28345 22.168 6.94766 22.168 6.53345H20.668ZM22.168 11.1897C22.168 10.7755 21.8322 10.4397 21.418 10.4397C21.0038 10.4397 20.668 10.7755 20.668 11.1897H22.168ZM11.418 1.9397C11.8322 1.9397 12.168 1.60391 12.168 1.1897C12.168 0.775484 11.8322 0.439697 11.418 0.439697V1.9397ZM12.418 10.1897L12.9483 10.72L21.9483 1.72003L21.418 1.1897L20.8876 0.659367L11.8876 9.65937L12.418 10.1897ZM21.418 1.1897V0.439697H16.0742V1.1897V1.9397H21.418V1.1897ZM21.418 1.1897H20.668V6.53345H21.418H22.168V1.1897H21.418ZM11.418 21.1897V20.4397C9.03974 20.4397 7.33152 20.4381 6.03155 20.2633C4.75314 20.0914 3.98242 19.7646 3.41276 19.1949L2.88243 19.7252L2.3521 20.2556C3.24691 21.1504 4.38694 21.5557 5.83167 21.75C7.25483 21.9413 9.08215 21.9397 11.418 21.9397V21.1897ZM1.41797 11.1897H0.667969C0.667969 13.5255 0.666376 15.3528 0.857715 16.776C1.05195 18.2207 1.45729 19.3608 2.3521 20.2556L2.88243 19.7252L3.41276 19.1949C2.84311 18.6252 2.51622 17.8545 2.34434 16.5761C2.16956 15.2761 2.16797 13.5679 2.16797 11.1897H1.41797ZM21.418 11.1897H20.668C20.668 13.5679 20.6664 15.2761 20.4916 16.5761C20.3197 17.8545 19.9928 18.6252 19.4232 19.1949L19.9535 19.7252L20.4838 20.2556C21.3786 19.3608 21.784 18.2207 21.9782 16.776C22.1696 15.3528 22.168 13.5255 22.168 11.1897H21.418ZM11.418 21.1897V21.9397C13.7538 21.9397 15.5811 21.9413 17.0043 21.75C18.449 21.5557 19.589 21.1504 20.4838 20.2556L19.9535 19.7252L19.4232 19.1949C18.8535 19.7646 18.0828 20.0914 16.8044 20.2633C15.5044 20.4381 13.7962 20.4397 11.418 20.4397V21.1897ZM11.418 1.1897V0.439697C9.08215 0.439697 7.25483 0.438104 5.83167 0.629443C4.38694 0.823683 3.24691 1.22902 2.3521 2.12383L2.88243 2.65416L3.41276 3.18449C3.98242 2.61484 4.75314 2.28794 6.03155 2.11607C7.33152 1.94129 9.03974 1.9397 11.418 1.9397V1.1897ZM1.41797 11.1897H2.16797C2.16797 8.81147 2.16956 7.10325 2.34434 5.80327C2.51622 4.52487 2.84311 3.75415 3.41276 3.18449L2.88243 2.65416L2.3521 2.12383C1.45729 3.01864 1.05195 4.15867 0.857715 5.6034C0.666376 7.02656 0.667969 8.85388 0.667969 11.1897H1.41797Z" fill="#1D4ED8"/>
</svg>
