<svg width="17" height="21" viewBox="0 0 17 21" fill="none" xmlns="http://www.w3.org/2000/svg">
<path fill-rule="evenodd" clip-rule="evenodd" d="M8.66797 0.233887C6.04462 0.233887 3.91797 2.36053 3.91797 4.98389C3.91797 7.60724 6.04462 9.73389 8.66797 9.73389C11.2913 9.73389 13.418 7.60724 13.418 4.98389C13.418 2.36053 11.2913 0.233887 8.66797 0.233887ZM5.41797 4.98389C5.41797 3.18896 6.87304 1.73389 8.66797 1.73389C10.4629 1.73389 11.918 3.18896 11.918 4.98389C11.918 6.77881 10.4629 8.23389 8.66797 8.23389C6.87304 8.23389 5.41797 6.77881 5.41797 4.98389Z" fill="#1D4ED8"/>
<path fill-rule="evenodd" clip-rule="evenodd" d="M8.66797 11.2339C6.62863 11.2339 4.74549 11.7046 3.34612 12.5043C1.96797 13.2918 0.917969 14.494 0.917969 15.9839C0.917969 17.4738 1.96797 18.676 3.34612 19.4635C4.74549 20.2631 6.62863 20.7339 8.66797 20.7339C10.7073 20.7339 12.5905 20.2631 13.9898 19.4635C15.368 18.676 16.418 17.4738 16.418 15.9839C16.418 14.494 15.368 13.2918 13.9898 12.5043C12.5905 11.7046 10.7073 11.2339 8.66797 11.2339ZM2.41797 15.9839C2.41797 15.2646 2.93498 14.4668 4.09033 13.8066C5.22446 13.1586 6.84131 12.7339 8.66797 12.7339C10.4946 12.7339 12.1115 13.1586 13.2456 13.8066C14.401 14.4668 14.918 15.2646 14.918 15.9839C14.918 16.7032 14.401 17.5009 13.2456 18.1611C12.1115 18.8092 10.4946 19.2339 8.66797 19.2339C6.84131 19.2339 5.22446 18.8092 4.09033 18.1611C2.93498 17.5009 2.41797 16.7032 2.41797 15.9839Z" fill="#1D4ED8"/>
</svg>
