<svg width="22" height="23" viewBox="0 0 22 23" fill="none" xmlns="http://www.w3.org/2000/svg">
<path id="Vector" d="M0 22.9384L1.5538 17.262C0.594993 15.6004 0.0911831 13.7169 0.0921042 11.7855C0.0948673 5.74713 5.00862 0.833374 11.0461 0.833374C13.9759 0.834295 16.7261 1.97547 18.7948 4.04597C20.8625 6.11647 22.0009 8.86854 22 11.7956C21.9972 17.8349 17.0835 22.7486 11.0461 22.7486C9.21318 22.7477 7.40702 22.2881 5.80717 21.415L0 22.9384ZM6.07611 19.432C7.61978 20.3484 9.09344 20.8973 11.0424 20.8983C16.0602 20.8983 20.1478 16.8144 20.1505 11.7938C20.1524 6.76304 16.0841 2.68467 11.0497 2.68283C6.02822 2.68283 1.9434 6.76672 1.94156 11.7864C1.94063 13.8357 2.54115 15.3702 3.54969 16.9755L2.62957 20.3355L6.07611 19.432ZM16.564 14.3994C16.4959 14.2852 16.3135 14.217 16.039 14.0798C15.7655 13.9426 14.4198 13.2803 14.1684 13.1891C13.9179 13.098 13.7355 13.0519 13.5522 13.3264C13.3698 13.5999 12.8448 14.217 12.6855 14.3994C12.5262 14.5818 12.3659 14.6048 12.0924 14.4676C11.8188 14.3303 10.9364 14.042 9.89106 13.109C9.07778 12.3832 8.52792 11.4871 8.36858 11.2126C8.20924 10.939 8.352 10.7908 8.48832 10.6544C8.61174 10.5319 8.76187 10.3348 8.8991 10.1746C9.03818 10.0162 9.08331 9.90195 9.17542 9.71866C9.2666 9.53629 9.22147 9.37603 9.15239 9.2388C9.08331 9.10248 8.53621 7.755 8.30872 7.20698C8.08582 6.6737 7.86017 6.74554 7.69254 6.73725L7.16755 6.72804C6.98518 6.72804 6.6886 6.7962 6.43808 7.07067C6.18756 7.34514 5.4802 8.00645 5.4802 9.35393C5.4802 10.7014 6.46111 12.0028 6.59742 12.1852C6.73466 12.3676 8.527 15.1325 11.2726 16.3179C11.9256 16.5998 12.4359 16.7683 12.8329 16.8945C13.4887 17.1026 14.0855 17.0732 14.5571 17.0032C15.083 16.9249 16.1763 16.3409 16.4047 15.7017C16.6331 15.0616 16.6331 14.5136 16.564 14.3994Z" fill="white"/>
</svg>
